<mxfile host="app.diagrams.net" modified="2023-10-15T13:30:47.778Z" agent="Mozilla/5.0 (Windows NT 10.0; WOW64) AppleWebKit/537.36 (KHTML, like Gecko) Chrome/102.0.0.0 Safari/537.36" etag="Lvn63Soqu1mSxHPK2tzJ" version="22.0.4" type="github">
  <diagram name="第 1 页" id="rJK-KwYnEK7WUkDzHzTy">
    <mxGraphModel dx="1434" dy="356" grid="0" gridSize="10" guides="1" tooltips="1" connect="1" arrows="1" fold="1" page="0" pageScale="1" pageWidth="827" pageHeight="1169" math="0" shadow="0">
      <root>
        <mxCell id="0" />
        <mxCell id="1" parent="0" />
        <mxCell id="rNyG7_ml6uGijOsPYwgM-1" value="" style="rounded=0;whiteSpace=wrap;html=1;fillColor=#d5e8d4;strokeColor=#82b366;" parent="1" vertex="1">
          <mxGeometry x="30" y="525" width="490" height="205" as="geometry" />
        </mxCell>
        <mxCell id="rNyG7_ml6uGijOsPYwgM-2" value="&lt;font style=&quot;font-size: 21px;&quot;&gt;基础数据&lt;/font&gt;" style="text;html=1;strokeColor=none;fillColor=none;align=center;verticalAlign=middle;whiteSpace=wrap;rounded=0;" parent="1" vertex="1">
          <mxGeometry x="40" y="530" width="90" height="50" as="geometry" />
        </mxCell>
        <mxCell id="rNyG7_ml6uGijOsPYwgM-3" value="" style="rounded=0;whiteSpace=wrap;html=1;fillColor=#dae8fc;strokeColor=#6c8ebf;" parent="1" vertex="1">
          <mxGeometry x="70" y="570" width="100" height="40" as="geometry" />
        </mxCell>
        <mxCell id="rNyG7_ml6uGijOsPYwgM-4" value="员工表" style="text;html=1;strokeColor=none;fillColor=none;align=center;verticalAlign=middle;whiteSpace=wrap;rounded=0;" parent="1" vertex="1">
          <mxGeometry x="90" y="575" width="60" height="30" as="geometry" />
        </mxCell>
        <mxCell id="rNyG7_ml6uGijOsPYwgM-5" value="" style="rounded=0;whiteSpace=wrap;html=1;fillColor=#dae8fc;strokeColor=#6c8ebf;" parent="1" vertex="1">
          <mxGeometry x="220" y="570" width="100" height="40" as="geometry" />
        </mxCell>
        <mxCell id="rNyG7_ml6uGijOsPYwgM-6" value="物料详情表" style="text;html=1;strokeColor=none;fillColor=none;align=center;verticalAlign=middle;whiteSpace=wrap;rounded=0;" parent="1" vertex="1">
          <mxGeometry x="230" y="577.5" width="80" height="25" as="geometry" />
        </mxCell>
        <mxCell id="rNyG7_ml6uGijOsPYwgM-7" value="" style="rounded=0;whiteSpace=wrap;html=1;fillColor=#dae8fc;strokeColor=#6c8ebf;" parent="1" vertex="1">
          <mxGeometry x="364" y="570" width="100" height="40" as="geometry" />
        </mxCell>
        <mxCell id="rNyG7_ml6uGijOsPYwgM-8" value="字典表" style="text;html=1;strokeColor=none;fillColor=none;align=center;verticalAlign=middle;whiteSpace=wrap;rounded=0;" parent="1" vertex="1">
          <mxGeometry x="384" y="575" width="60" height="30" as="geometry" />
        </mxCell>
        <mxCell id="rNyG7_ml6uGijOsPYwgM-9" value="" style="rounded=0;whiteSpace=wrap;html=1;fillColor=#dae8fc;strokeColor=#6c8ebf;" parent="1" vertex="1">
          <mxGeometry x="70" y="620" width="100" height="40" as="geometry" />
        </mxCell>
        <mxCell id="rNyG7_ml6uGijOsPYwgM-10" value="部门表" style="text;html=1;strokeColor=none;fillColor=none;align=center;verticalAlign=middle;whiteSpace=wrap;rounded=0;" parent="1" vertex="1">
          <mxGeometry x="90" y="625" width="60" height="30" as="geometry" />
        </mxCell>
        <mxCell id="rNyG7_ml6uGijOsPYwgM-11" value="" style="rounded=0;whiteSpace=wrap;html=1;fillColor=#dae8fc;strokeColor=#6c8ebf;" parent="1" vertex="1">
          <mxGeometry x="70" y="670" width="100" height="40" as="geometry" />
        </mxCell>
        <mxCell id="rNyG7_ml6uGijOsPYwgM-12" value="物料分类表" style="text;html=1;strokeColor=none;fillColor=none;align=center;verticalAlign=middle;whiteSpace=wrap;rounded=0;" parent="1" vertex="1">
          <mxGeometry x="80" y="675" width="80" height="30" as="geometry" />
        </mxCell>
        <mxCell id="rNyG7_ml6uGijOsPYwgM-13" value="" style="rounded=0;whiteSpace=wrap;html=1;fillColor=#dae8fc;strokeColor=#6c8ebf;" parent="1" vertex="1">
          <mxGeometry x="220" y="620" width="100" height="40" as="geometry" />
        </mxCell>
        <mxCell id="rNyG7_ml6uGijOsPYwgM-14" value="供应商分类表" style="text;html=1;strokeColor=none;fillColor=none;align=center;verticalAlign=middle;whiteSpace=wrap;rounded=0;" parent="1" vertex="1">
          <mxGeometry x="230" y="625" width="80" height="30" as="geometry" />
        </mxCell>
        <mxCell id="rNyG7_ml6uGijOsPYwgM-15" value="" style="rounded=0;whiteSpace=wrap;html=1;fillColor=#dae8fc;strokeColor=#6c8ebf;" parent="1" vertex="1">
          <mxGeometry x="364" y="620" width="100" height="40" as="geometry" />
        </mxCell>
        <mxCell id="rNyG7_ml6uGijOsPYwgM-16" value="菜单表" style="text;html=1;strokeColor=none;fillColor=none;align=center;verticalAlign=middle;whiteSpace=wrap;rounded=0;" parent="1" vertex="1">
          <mxGeometry x="384" y="625" width="60" height="30" as="geometry" />
        </mxCell>
        <mxCell id="rNyG7_ml6uGijOsPYwgM-17" value="" style="rounded=0;whiteSpace=wrap;html=1;fillColor=#dae8fc;strokeColor=#6c8ebf;" parent="1" vertex="1">
          <mxGeometry x="220" y="670" width="100" height="40" as="geometry" />
        </mxCell>
        <mxCell id="rNyG7_ml6uGijOsPYwgM-18" value="供应商详情表" style="text;html=1;strokeColor=none;fillColor=none;align=center;verticalAlign=middle;whiteSpace=wrap;rounded=0;" parent="1" vertex="1">
          <mxGeometry x="230" y="675" width="80" height="30" as="geometry" />
        </mxCell>
        <mxCell id="rNyG7_ml6uGijOsPYwgM-19" value="" style="rounded=0;whiteSpace=wrap;html=1;fillColor=#dae8fc;strokeColor=#6c8ebf;" parent="1" vertex="1">
          <mxGeometry x="364" y="670" width="100" height="40" as="geometry" />
        </mxCell>
        <mxCell id="rNyG7_ml6uGijOsPYwgM-20" value="编码表" style="text;html=1;strokeColor=none;fillColor=none;align=center;verticalAlign=middle;whiteSpace=wrap;rounded=0;" parent="1" vertex="1">
          <mxGeometry x="384" y="675" width="60" height="30" as="geometry" />
        </mxCell>
        <mxCell id="rNyG7_ml6uGijOsPYwgM-21" value="" style="rounded=0;whiteSpace=wrap;html=1;" parent="1" vertex="1">
          <mxGeometry x="30" y="770" width="896" height="450" as="geometry" />
        </mxCell>
        <mxCell id="rNyG7_ml6uGijOsPYwgM-22" value="&lt;font style=&quot;font-size: 36px;&quot;&gt;采购需求（创建）&lt;/font&gt;" style="text;html=1;strokeColor=none;fillColor=none;align=center;verticalAlign=middle;whiteSpace=wrap;rounded=0;" parent="1" vertex="1">
          <mxGeometry x="49" y="785" width="185" height="79" as="geometry" />
        </mxCell>
        <mxCell id="rNyG7_ml6uGijOsPYwgM-26" style="edgeStyle=orthogonalEdgeStyle;rounded=0;orthogonalLoop=1;jettySize=auto;html=1;exitX=1;exitY=0.5;exitDx=0;exitDy=0;entryX=0;entryY=0.5;entryDx=0;entryDy=0;" parent="1" source="rNyG7_ml6uGijOsPYwgM-23" target="rNyG7_ml6uGijOsPYwgM-25" edge="1">
          <mxGeometry relative="1" as="geometry" />
        </mxCell>
        <mxCell id="rNyG7_ml6uGijOsPYwgM-23" value="" style="rounded=1;whiteSpace=wrap;html=1;" parent="1" vertex="1">
          <mxGeometry x="50" y="949" width="91" height="41" as="geometry" />
        </mxCell>
        <mxCell id="rNyG7_ml6uGijOsPYwgM-24" value="开始" style="text;html=1;strokeColor=none;fillColor=none;align=center;verticalAlign=middle;whiteSpace=wrap;rounded=0;" parent="1" vertex="1">
          <mxGeometry x="66" y="955" width="60" height="30" as="geometry" />
        </mxCell>
        <mxCell id="rNyG7_ml6uGijOsPYwgM-36" style="edgeStyle=orthogonalEdgeStyle;rounded=0;orthogonalLoop=1;jettySize=auto;html=1;exitX=1;exitY=0.5;exitDx=0;exitDy=0;" parent="1" source="rNyG7_ml6uGijOsPYwgM-25" target="rNyG7_ml6uGijOsPYwgM-31" edge="1">
          <mxGeometry relative="1" as="geometry" />
        </mxCell>
        <mxCell id="rNyG7_ml6uGijOsPYwgM-25" value="员工" style="rounded=0;whiteSpace=wrap;html=1;" parent="1" vertex="1">
          <mxGeometry x="206" y="940" width="97" height="60" as="geometry" />
        </mxCell>
        <mxCell id="rNyG7_ml6uGijOsPYwgM-29" value="从属部门" style="edgeStyle=orthogonalEdgeStyle;rounded=0;orthogonalLoop=1;jettySize=auto;html=1;exitX=0.5;exitY=1;exitDx=0;exitDy=0;entryX=0.5;entryY=0;entryDx=0;entryDy=0;" parent="1" source="rNyG7_ml6uGijOsPYwgM-28" target="rNyG7_ml6uGijOsPYwgM-25" edge="1">
          <mxGeometry relative="1" as="geometry" />
        </mxCell>
        <mxCell id="rNyG7_ml6uGijOsPYwgM-28" value="部门" style="rounded=0;whiteSpace=wrap;html=1;" parent="1" vertex="1">
          <mxGeometry x="206" y="833" width="97" height="60" as="geometry" />
        </mxCell>
        <mxCell id="rNyG7_ml6uGijOsPYwgM-41" style="edgeStyle=orthogonalEdgeStyle;rounded=0;orthogonalLoop=1;jettySize=auto;html=1;exitX=0.5;exitY=1;exitDx=0;exitDy=0;entryX=0.5;entryY=0;entryDx=0;entryDy=0;" parent="1" source="rNyG7_ml6uGijOsPYwgM-31" target="rNyG7_ml6uGijOsPYwgM-40" edge="1">
          <mxGeometry relative="1" as="geometry" />
        </mxCell>
        <mxCell id="rNyG7_ml6uGijOsPYwgM-31" value="提出采购申请（主子结构）" style="rounded=0;whiteSpace=wrap;html=1;" parent="1" vertex="1">
          <mxGeometry x="455" y="939.5" width="97" height="60" as="geometry" />
        </mxCell>
        <mxCell id="rNyG7_ml6uGijOsPYwgM-38" value="选择物料" style="edgeStyle=orthogonalEdgeStyle;rounded=0;orthogonalLoop=1;jettySize=auto;html=1;exitX=0;exitY=0.5;exitDx=0;exitDy=0;dashed=1;" parent="1" source="rNyG7_ml6uGijOsPYwgM-32" edge="1">
          <mxGeometry relative="1" as="geometry">
            <mxPoint x="378" y="971" as="targetPoint" />
          </mxGeometry>
        </mxCell>
        <mxCell id="rNyG7_ml6uGijOsPYwgM-32" value="物料信息" style="rounded=0;whiteSpace=wrap;html=1;" parent="1" vertex="1">
          <mxGeometry x="430" y="876" width="147" height="34" as="geometry" />
        </mxCell>
        <mxCell id="rNyG7_ml6uGijOsPYwgM-34" value="包含" style="edgeStyle=orthogonalEdgeStyle;rounded=0;orthogonalLoop=1;jettySize=auto;html=1;exitX=0.5;exitY=1;exitDx=0;exitDy=0;entryX=0.5;entryY=0;entryDx=0;entryDy=0;" parent="1" source="rNyG7_ml6uGijOsPYwgM-33" target="rNyG7_ml6uGijOsPYwgM-32" edge="1">
          <mxGeometry relative="1" as="geometry" />
        </mxCell>
        <mxCell id="rNyG7_ml6uGijOsPYwgM-33" value="物料分类（多级）" style="rounded=0;whiteSpace=wrap;html=1;" parent="1" vertex="1">
          <mxGeometry x="430" y="792" width="147" height="34" as="geometry" />
        </mxCell>
        <mxCell id="rNyG7_ml6uGijOsPYwgM-43" value="Y" style="edgeStyle=orthogonalEdgeStyle;rounded=0;orthogonalLoop=1;jettySize=auto;html=1;exitX=1;exitY=0.5;exitDx=0;exitDy=0;entryX=0;entryY=0.5;entryDx=0;entryDy=0;" parent="1" source="rNyG7_ml6uGijOsPYwgM-40" target="rNyG7_ml6uGijOsPYwgM-42" edge="1">
          <mxGeometry relative="1" as="geometry" />
        </mxCell>
        <mxCell id="rNyG7_ml6uGijOsPYwgM-45" style="edgeStyle=orthogonalEdgeStyle;rounded=0;orthogonalLoop=1;jettySize=auto;html=1;exitX=0.5;exitY=1;exitDx=0;exitDy=0;entryX=0.5;entryY=0;entryDx=0;entryDy=0;" parent="1" source="rNyG7_ml6uGijOsPYwgM-40" target="rNyG7_ml6uGijOsPYwgM-44" edge="1">
          <mxGeometry relative="1" as="geometry" />
        </mxCell>
        <mxCell id="rNyG7_ml6uGijOsPYwgM-47" value="N" style="edgeStyle=orthogonalEdgeStyle;rounded=0;orthogonalLoop=1;jettySize=auto;html=1;exitX=0.5;exitY=1;exitDx=0;exitDy=0;entryX=0.5;entryY=0;entryDx=0;entryDy=0;" parent="1" source="rNyG7_ml6uGijOsPYwgM-40" target="rNyG7_ml6uGijOsPYwgM-44" edge="1">
          <mxGeometry relative="1" as="geometry" />
        </mxCell>
        <mxCell id="rNyG7_ml6uGijOsPYwgM-40" value="部门领导审批通过" style="rhombus;whiteSpace=wrap;html=1;" parent="1" vertex="1">
          <mxGeometry x="442.5" y="1029" width="122" height="80" as="geometry" />
        </mxCell>
        <mxCell id="rNyG7_ml6uGijOsPYwgM-49" style="edgeStyle=orthogonalEdgeStyle;rounded=0;orthogonalLoop=1;jettySize=auto;html=1;exitX=1;exitY=0.5;exitDx=0;exitDy=0;" parent="1" source="rNyG7_ml6uGijOsPYwgM-42" target="rNyG7_ml6uGijOsPYwgM-48" edge="1">
          <mxGeometry relative="1" as="geometry" />
        </mxCell>
        <mxCell id="rNyG7_ml6uGijOsPYwgM-42" value="回写采购申请单状态为通过" style="rounded=0;whiteSpace=wrap;html=1;" parent="1" vertex="1">
          <mxGeometry x="631" y="1039" width="97" height="60" as="geometry" />
        </mxCell>
        <mxCell id="rNyG7_ml6uGijOsPYwgM-50" style="edgeStyle=orthogonalEdgeStyle;rounded=0;orthogonalLoop=1;jettySize=auto;html=1;exitX=1;exitY=0.5;exitDx=0;exitDy=0;" parent="1" source="rNyG7_ml6uGijOsPYwgM-44" target="rNyG7_ml6uGijOsPYwgM-48" edge="1">
          <mxGeometry relative="1" as="geometry" />
        </mxCell>
        <mxCell id="rNyG7_ml6uGijOsPYwgM-44" value="回写采购申请单状态为驳回" style="rounded=0;whiteSpace=wrap;html=1;" parent="1" vertex="1">
          <mxGeometry x="455" y="1154" width="97" height="60" as="geometry" />
        </mxCell>
        <mxCell id="rNyG7_ml6uGijOsPYwgM-48" value="结束" style="rounded=1;whiteSpace=wrap;html=1;" parent="1" vertex="1">
          <mxGeometry x="777" y="1048.5" width="91" height="41" as="geometry" />
        </mxCell>
        <mxCell id="rNyG7_ml6uGijOsPYwgM-51" value="员工只能看到自己的采购申请&lt;br&gt;部门领导只能审批自己部门下属的采购申请" style="shape=note;whiteSpace=wrap;html=1;backgroundOutline=1;darkOpacity=0.05;size=17;fillColor=#fff2cc;strokeColor=#d6b656;" parent="1" vertex="1">
          <mxGeometry x="621" y="923" width="209" height="86" as="geometry" />
        </mxCell>
        <mxCell id="rNyG7_ml6uGijOsPYwgM-52" value="采购需求主表" style="rounded=0;whiteSpace=wrap;html=1;fillColor=#dae8fc;strokeColor=#6c8ebf;" parent="1" vertex="1">
          <mxGeometry x="690" y="792" width="100" height="40" as="geometry" />
        </mxCell>
        <mxCell id="rNyG7_ml6uGijOsPYwgM-53" value="" style="rounded=0;whiteSpace=wrap;html=1;fillColor=#dae8fc;strokeColor=#6c8ebf;" parent="1" vertex="1">
          <mxGeometry x="690" y="853" width="100" height="40" as="geometry" />
        </mxCell>
      </root>
    </mxGraphModel>
  </diagram>
</mxfile>
